<svg version="1.1" id="Layer_1" xmlns="http://www.w3.org/2000/svg" xmlns:xlink="http://www.w3.org/1999/xlink" x="0px" y="0px"
	 width="100%" viewBox="0 0 512 512" enable-background="new 0 0 512 512" xml:space="preserve">
<path fill="#212121" opacity="1.000000" stroke="none" 
	d="
M255.000000,513.000000 
	C170.375427,513.000000 85.750862,513.000000 1.063147,513.000000 
	C1.063147,342.333344 1.063147,171.666672 1.063147,1.000000 
	C38.766815,1.000000 76.414749,1.000000 114.603508,1.350358 
	C119.832603,14.790204 124.613373,27.847488 129.184341,40.977806 
	C134.233826,55.482620 138.969238,70.097206 144.065842,84.585045 
	C149.279800,99.406479 154.324478,114.312172 160.252930,128.850815 
	C166.564545,144.329102 170.649307,160.631195 178.169037,175.663422 
	C181.081360,181.485275 182.948837,187.841400 185.141434,194.007767 
	C186.743866,198.514374 187.358414,203.546204 189.731140,207.566071 
	C193.752975,214.379852 196.802582,220.997803 193.849182,229.309509 
	C191.573608,233.852402 189.378189,238.052856 187.397964,242.352432 
	C187.099167,243.001190 187.803955,244.112183 188.014130,245.336426 
	C187.611374,246.687515 187.238983,247.711533 186.615311,248.985321 
	C182.725616,257.446289 179.087189,265.657471 175.263779,274.140747 
	C171.637222,282.245911 168.195663,290.079010 164.523468,298.161316 
	C160.540085,306.643127 156.787384,314.875793 152.617218,323.098389 
	C144.147385,324.166901 136.095047,325.245422 127.605698,326.245422 
	C114.806641,327.230896 102.444565,328.294983 89.647873,329.276245 
	C80.106972,329.998108 71.000671,330.802795 61.561707,331.523743 
	C58.583096,331.711700 55.897312,331.780365 53.298149,332.290436 
	C42.294327,334.449829 36.382053,346.150330 41.343044,356.171906 
	C45.391727,364.350555 52.624702,366.372437 61.530327,365.692200 
	C71.694077,366.014191 81.398186,366.270966 91.561050,366.583069 
	C104.030128,366.953918 116.040443,367.269440 128.510040,367.663513 
	C137.319229,368.090118 145.669159,368.438171 154.445526,368.835297 
	C156.587128,368.849121 158.302261,368.813904 160.476807,368.833435 
	C167.109955,368.811981 173.477692,369.912384 179.296600,365.867554 
	C180.287582,365.470917 180.985916,365.115997 181.775101,365.131348 
	C185.075333,368.996552 188.886734,371.779480 190.372940,376.884979 
	C191.650772,381.274658 194.886917,385.052307 196.725784,389.329041 
	C200.992538,399.252411 204.840363,409.355408 209.067413,419.296570 
	C210.529755,422.735657 212.674927,425.878662 214.393341,429.216064 
	C216.678009,433.653168 218.856186,438.145233 221.069138,442.619110 
	C222.992935,446.508331 224.899643,450.406036 226.817261,454.298340 
	C228.895477,458.516571 230.924179,462.760406 233.073975,466.941895 
	C234.977921,470.645203 235.990005,474.525269 237.075165,478.544922 
	C238.727692,484.666229 243.504257,489.894592 246.606613,495.688263 
	C249.631485,501.337250 252.219940,507.219910 255.000000,513.000000 
z"/>
<path fill="#262626" opacity="1.000000" stroke="none" 
	d="
M287.000000,1.000001 
	C362.288116,1.000000 437.576202,1.000000 513.000000,1.000000 
	C513.000000,165.355957 513.000000,329.711945 512.652832,494.456970 
	C511.648438,494.368805 510.743164,494.035034 510.371582,493.392578 
	C505.926971,485.708862 501.359161,478.085693 497.230530,470.232758 
	C492.811584,461.827484 488.918335,453.147522 484.623871,444.674530 
	C480.734924,437.001556 476.584045,429.461761 472.605164,421.833771 
	C468.721008,414.387329 464.884216,406.915863 461.070526,399.433044 
	C456.436890,390.341339 451.840729,381.230469 447.243896,372.120056 
	C442.639709,362.994995 437.955658,353.908478 433.484528,344.718475 
	C426.805695,330.990936 420.281128,317.188324 413.694489,303.415924 
	C412.153168,300.193054 409.672729,297.068298 409.303558,293.713593 
	C408.661560,287.879944 406.109863,289.179047 402.224213,290.151428 
	C398.620392,291.053284 394.667908,290.561951 390.926025,290.425964 
	C391.163483,289.864288 391.343872,289.560791 391.832001,289.347656 
	C392.762665,289.315887 393.385590,289.193726 394.400024,289.117401 
	C400.433258,288.374817 405.240753,285.576050 407.306671,280.488647 
	C409.332031,275.501129 412.143280,274.051605 416.985291,274.941895 
	C417.931702,275.115906 418.959534,274.846893 420.377930,274.848907 
	C436.065857,274.125854 449.295959,268.483612 460.888458,258.129974 
	C465.327118,253.113846 469.922852,248.520294 473.438751,243.211578 
	C474.848297,241.083267 475.111755,236.553940 473.764465,234.554047 
	C469.941101,228.878662 465.017822,223.944275 460.311401,218.452347 
	C454.225281,214.203888 448.355469,210.221191 442.373688,206.162537 
	C445.998260,200.496460 447.301697,194.282761 444.028870,187.875793 
	C437.516693,175.127472 430.799896,162.483673 424.064240,149.459320 
	C422.007294,145.268616 419.648743,141.563370 418.175781,137.534348 
	C413.707458,125.311752 404.774231,119.470604 391.871063,118.299591 
	C384.354492,116.494034 377.166809,114.814354 369.639465,112.967316 
	C364.056793,111.523727 358.813782,110.247505 355.335938,109.400955 
	C357.046234,107.084686 359.252716,104.096474 361.705688,100.905571 
	C373.326019,84.719566 372.518097,64.845566 359.836792,51.743408 
	C356.842560,49.209698 353.985901,46.982147 350.885620,44.514786 
	C345.829926,42.706696 341.017822,41.138412 335.987030,39.361008 
	C335.174927,39.153103 334.581573,39.154316 333.548279,39.089203 
	C324.976990,38.611557 317.756042,41.281834 310.730957,45.650200 
	C310.093140,45.889454 309.732239,46.030876 308.966553,46.132904 
	C303.584320,46.115105 302.493073,42.257557 301.141998,38.659821 
	C296.427826,26.106607 291.713959,13.553283 287.000000,1.000001 
z"/>
<path fill="#232323" opacity="1.000000" stroke="none" 
	d="
M286.531342,1.000001 
	C291.713959,13.553283 296.427826,26.106607 301.141998,38.659821 
	C302.493073,42.257557 303.584320,46.115105 308.776733,46.419216 
	C306.563965,49.229008 304.136230,51.713097 301.430908,54.436241 
	C299.505249,57.308865 297.412354,59.766842 296.290863,62.608227 
	C292.618286,71.912979 292.473297,81.353104 295.809082,90.889679 
	C296.294098,92.276329 295.274872,94.189148 294.559296,95.773849 
	C291.331879,96.731567 288.496857,97.773933 285.333801,98.884857 
	C281.960968,103.287033 278.916229,107.620651 275.572327,112.112373 
	C272.838562,116.175339 270.403961,120.080200 267.686951,124.166412 
	C263.982269,129.076248 260.392090,133.693710 257.176453,138.558746 
	C252.122879,146.204453 247.321701,154.016968 242.099518,161.862732 
	C239.524506,165.313477 237.263611,168.660370 234.694977,172.127380 
	C233.591431,173.498550 232.795609,174.749588 231.674896,176.118561 
	C230.977112,177.240326 230.604187,178.244125 230.161957,179.184814 
	C230.092651,179.121689 230.258789,179.208557 229.904022,179.226257 
	C224.395096,186.904770 219.240936,194.565567 213.991089,202.487885 
	C213.728195,202.830063 213.560989,202.910721 213.154388,203.128387 
	C212.638596,203.918152 212.362167,204.570892 211.989090,205.485901 
	C211.724670,205.829178 211.556885,205.910233 211.150528,206.128204 
	C210.635864,206.916153 210.359772,207.567184 209.987640,208.479370 
	C209.724823,208.821747 209.558044,208.902985 209.100479,209.090363 
	C206.564926,212.862762 204.320175,216.529037 201.969589,220.487823 
	C201.611298,221.534805 201.358826,222.289261 200.810333,223.103485 
	C200.019302,223.775833 199.524307,224.388443 198.700516,225.118317 
	C198.006531,226.249222 197.641342,227.262848 197.152817,228.143127 
	C197.029495,228.009811 197.288101,228.265350 196.946594,228.251923 
	C195.736511,228.492096 194.867950,228.745728 193.999390,228.999344 
	C196.802582,220.997803 193.752975,214.379852 189.731140,207.566071 
	C187.358414,203.546204 186.743866,198.514374 185.141434,194.007767 
	C182.948837,187.841400 181.081360,181.485275 178.169037,175.663422 
	C170.649307,160.631195 166.564545,144.329102 160.252930,128.850815 
	C154.324478,114.312172 149.279800,99.406479 144.065842,84.585045 
	C138.969238,70.097206 134.233826,55.482620 129.184341,40.977806 
	C124.613373,27.847488 119.832603,14.790204 115.072166,1.350358 
	C172.020889,1.000000 229.041794,1.000000 286.531342,1.000001 
z"/>
<path fill="#242424" opacity="1.000000" stroke="none" 
	d="
M390.868958,290.684082 
	C394.667908,290.561951 398.620392,291.053284 402.224213,290.151428 
	C406.109863,289.179047 408.661560,287.879944 409.303558,293.713593 
	C409.672729,297.068298 412.153168,300.193054 413.694489,303.415924 
	C420.281128,317.188324 426.805695,330.990936 433.484528,344.718475 
	C437.955658,353.908478 442.639709,362.994995 447.243896,372.120056 
	C451.840729,381.230469 456.436890,390.341339 461.070526,399.433044 
	C464.884216,406.915863 468.721008,414.387329 472.605164,421.833771 
	C476.584045,429.461761 480.734924,437.001556 484.623871,444.674530 
	C488.918335,453.147522 492.811584,461.827484 497.230530,470.232758 
	C501.359161,478.085693 505.926971,485.708862 510.371582,493.392578 
	C510.743164,494.035034 511.648438,494.368805 512.652832,494.923004 
	C513.000000,500.976257 513.000000,506.952515 513.000000,513.000000 
	C482.312469,513.000000 451.624908,513.000000 420.398132,512.653809 
	C416.328888,505.383270 412.929535,498.387848 409.220428,491.560760 
	C406.941132,487.365479 403.823975,483.608276 401.708282,479.344116 
	C390.326996,456.405396 379.153107,433.363831 367.883575,410.369537 
	C362.849945,400.098846 357.760681,389.855469 352.695526,379.600281 
	C349.114227,372.349457 345.652954,365.035645 341.895630,357.877197 
	C340.103912,354.463623 338.134796,354.546387 336.216675,357.783508 
	C335.636505,358.762695 335.369110,359.932831 334.996124,361.028320 
	C331.413940,371.549774 327.873138,382.085571 324.207245,392.577728 
	C323.875610,393.526886 322.753693,394.199951 321.998474,394.603729 
	C321.975647,393.411774 321.953125,392.617340 321.934692,391.479248 
	C322.183075,390.085022 322.427399,389.034393 322.741425,387.648376 
	C322.839722,387.086334 322.868347,386.859772 323.079315,386.686951 
	C323.358582,386.659912 323.455475,386.579132 323.552399,386.498352 
	C323.336731,386.426056 323.121063,386.353790 322.979919,385.883057 
	C324.391998,381.329102 325.729584,377.173553 327.399048,372.860474 
	C329.496368,366.298035 330.714722,359.676697 333.144928,353.534882 
	C337.723816,341.962738 334.118195,334.324463 326.475037,326.516663 
	C322.547974,321.114685 318.774323,316.057251 314.971680,310.612061 
	C314.934845,309.965302 314.927002,309.706207 314.977722,309.538635 
	C315.036285,309.630127 315.166748,309.512146 315.166748,309.512146 
	C315.166748,309.512146 314.944397,309.580719 314.635071,309.391998 
	C311.812897,305.826294 309.300079,302.449341 306.692078,298.751648 
	C304.255798,295.231903 301.914642,292.032928 299.401917,288.520142 
	C295.725708,283.391663 292.221130,278.576965 288.601105,273.420227 
	C286.387390,270.256134 284.289062,267.434052 282.069763,264.302307 
	C278.770142,259.618256 275.591522,255.243851 272.260620,250.535889 
	C270.660736,248.064789 268.287964,246.056854 271.435608,243.138885 
	C274.470642,239.604034 277.213867,236.246857 280.251709,232.756531 
	C281.977448,231.538025 283.408539,230.452682 284.848572,229.746063 
	C287.299805,237.413849 289.742065,244.702927 292.190277,252.359650 
	C293.818024,258.307678 296.013641,263.481110 301.982971,266.422424 
	C304.855499,267.446106 307.469788,268.208344 310.181122,269.099731 
	C310.762939,269.261383 311.247742,269.293915 311.757874,269.477722 
	C311.783203,269.628967 312.088257,269.596832 312.385162,269.742828 
	C316.160431,270.817352 319.638824,271.745880 323.256287,273.059509 
	C327.608765,274.252960 331.822144,275.061310 336.131104,276.169312 
	C336.817780,276.633179 337.408905,276.797455 338.125305,277.303741 
	C343.775757,279.418793 349.239380,281.435059 354.853699,282.855713 
	C357.417358,283.504425 360.278198,282.978668 363.349579,283.018616 
	C364.817780,283.312805 365.940643,283.573975 367.229095,284.189087 
	C374.570007,286.040588 381.745392,287.538147 389.048523,289.283417 
	C389.740509,289.915405 390.304718,290.299744 390.868958,290.684082 
z"/>
<path fill="#232323" opacity="1.000000" stroke="none" 
	d="
M321.998779,395.001221 
	C322.753693,394.199951 323.875610,393.526886 324.207245,392.577728 
	C327.873138,382.085571 331.413940,371.549774 334.996124,361.028320 
	C335.369110,359.932831 335.636505,358.762695 336.216675,357.783508 
	C338.134796,354.546387 340.103912,354.463623 341.895630,357.877197 
	C345.652954,365.035645 349.114227,372.349457 352.695526,379.600281 
	C357.760681,389.855469 362.849945,400.098846 367.883575,410.369537 
	C379.153107,433.363831 390.326996,456.405396 401.708282,479.344116 
	C403.823975,483.608276 406.941132,487.365479 409.220428,491.560760 
	C412.929535,498.387848 416.328888,505.383270 419.929474,512.653809 
	C365.312439,513.000000 310.624878,513.000000 255.468658,513.000000 
	C252.219940,507.219910 249.631485,501.337250 246.606613,495.688263 
	C243.504257,489.894592 238.727692,484.666229 237.075165,478.544922 
	C235.990005,474.525269 234.977921,470.645203 233.073975,466.941895 
	C230.924179,462.760406 228.895477,458.516571 226.817261,454.298340 
	C224.899643,450.406036 222.992935,446.508331 221.069138,442.619110 
	C218.856186,438.145233 216.678009,433.653168 214.393341,429.216064 
	C212.674927,425.878662 210.529755,422.735657 209.067413,419.296570 
	C204.840363,409.355408 200.992538,399.252411 196.725784,389.329041 
	C194.886917,385.052307 191.650772,381.274658 190.372940,376.884979 
	C188.886734,371.779480 185.075333,368.996552 181.784576,365.143738 
	C181.703217,364.785858 181.695023,364.752716 182.073364,364.754944 
	C183.917496,363.010559 185.383286,361.263977 187.083893,359.279205 
	C188.824722,356.356781 190.330750,353.672546 191.997070,350.667816 
	C197.028275,341.894348 201.899200,333.441345 206.933594,324.665894 
	C209.403107,320.245941 211.709122,316.148468 214.271530,311.993683 
	C214.618652,311.635803 214.709381,311.335236 214.870865,310.784180 
	C214.991211,310.367371 215.040787,310.201050 215.406708,309.884460 
	C218.492950,304.826111 221.262848,299.918030 224.366852,294.890106 
	C226.805878,291.708740 228.910782,288.647217 231.303345,285.784821 
	C232.426636,286.976990 233.262299,287.970093 234.255768,289.263367 
	C237.602615,293.392731 240.791656,297.221924 244.103088,301.371155 
	C251.197830,309.795837 258.170197,317.900482 265.111938,326.272461 
	C265.385681,326.671600 265.690033,326.803467 266.152039,327.133331 
	C266.555573,327.552826 266.801422,327.774292 267.066467,328.341644 
	C271.399933,333.753479 275.714203,338.819458 280.096985,344.214417 
	C281.778961,346.058899 283.392395,347.574402 285.058411,349.485168 
	C285.190125,352.009735 285.634857,354.201355 285.284180,356.257355 
	C283.872803,364.532074 282.215546,372.764862 280.484863,381.396545 
	C279.198730,386.488586 277.996857,391.179779 276.969086,395.908813 
	C273.119537,413.621796 269.262238,431.333588 265.554047,449.076385 
	C264.498505,454.126831 262.285187,459.719421 263.498749,464.295380 
	C265.963226,473.587860 270.717010,480.742432 284.357117,478.871826 
	C295.242218,474.874908 298.102173,465.782440 299.972168,455.921478 
	C300.098236,455.888031 300.348663,455.815247 300.707825,455.716003 
	C302.374298,452.748566 303.681671,449.880402 305.140961,446.677917 
	C307.861877,438.563202 310.430817,430.782837 313.332733,422.898315 
	C318.761902,414.943817 321.566254,406.353210 321.997406,396.663696 
	C321.997864,395.887848 321.998322,395.444550 321.998779,395.001221 
z"/>
<path fill="#DBCA89" opacity="1.000000" stroke="none" 
	d="
M206.770111,324.988373 
	C201.899200,333.441345 197.028275,341.894348 191.612503,350.616089 
	C190.379089,348.900696 189.099579,346.919159 189.090729,344.931946 
	C188.961395,315.880615 189.064209,286.828156 188.908096,257.777069 
	C188.891876,254.759659 187.578232,251.749222 186.866592,248.735535 
	C187.238983,247.711533 187.611374,246.687515 188.212463,245.059143 
	C191.390152,239.058289 194.339127,233.661819 197.288116,228.265350 
	C197.288101,228.265350 197.029495,228.009811 197.437042,227.972260 
	C198.239502,226.956833 198.634415,225.978943 199.029312,225.001053 
	C199.524307,224.388443 200.019302,223.775833 201.139771,223.274536 
	C202.509491,225.578781 203.890823,227.768585 203.901672,229.965149 
	C204.046051,259.194092 203.932297,288.424408 204.118683,317.652863 
	C204.134308,320.103577 205.846268,322.543457 206.770111,324.988373 
z"/>
<path fill="#AE9058" opacity="1.000000" stroke="none" 
	d="
M128.050751,367.584961 
	C116.040443,367.269440 104.030128,366.953918 91.540054,366.146729 
	C90.734360,353.556366 90.408424,341.457703 90.082489,329.359070 
	C102.444565,328.294983 114.806641,327.230896 127.597473,326.692444 
	C128.034424,340.673676 128.042587,354.129333 128.050751,367.584961 
z"/>
<path fill="#BDA369" opacity="1.000000" stroke="none" 
	d="
M128.510025,367.663513 
	C128.042587,354.129333 128.034424,340.673676 128.034470,326.770996 
	C136.095047,325.245422 144.147385,324.166901 152.649750,323.510712 
	C153.397171,327.065948 153.922348,330.196716 153.951523,333.332092 
	C154.061478,345.149353 154.010071,356.968048 154.019089,368.786224 
	C145.669159,368.438171 137.319229,368.090118 128.510025,367.663513 
z"/>
<path fill="#D4C182" opacity="1.000000" stroke="none" 
	d="
M186.615311,248.985321 
	C187.578232,251.749222 188.891876,254.759659 188.908096,257.777069 
	C189.064209,286.828156 188.961395,315.880615 189.090729,344.931946 
	C189.099579,346.919159 190.379089,348.900696 191.452225,350.936584 
	C190.330750,353.672546 188.824722,356.356781 186.751587,359.390137 
	C184.688004,361.410431 183.191513,363.081573 181.695023,364.752716 
	C181.695023,364.752716 181.703217,364.785858 181.693741,364.773499 
	C180.985916,365.115997 180.287582,365.470917 179.296936,365.404877 
	C179.002899,358.846436 178.999847,352.708923 178.999634,346.571411 
	C178.998856,324.509521 179.006302,302.447632 178.989685,280.385742 
	C178.987595,277.606354 179.522568,274.466492 175.448761,273.868652 
	C179.087189,265.657471 182.725616,257.446289 186.615311,248.985321 
z"/>
<path fill="#CFBA7B" opacity="1.000000" stroke="none" 
	d="
M175.263763,274.140747 
	C179.522568,274.466492 178.987595,277.606354 178.989685,280.385742 
	C179.006302,302.447632 178.998856,324.509521 178.999634,346.571411 
	C178.999847,352.708923 179.002899,358.846436 179.004318,365.446594 
	C173.477692,369.912384 167.109955,368.811981 160.637390,368.505859 
	C162.830963,366.310242 167.336365,367.725586 167.185150,361.815399 
	C166.688385,342.401093 167.059708,322.965576 166.900253,303.539856 
	C166.884796,301.658203 165.502121,299.787750 164.754120,297.912109 
	C168.195663,290.079010 171.637222,282.245911 175.263763,274.140747 
z"/>
<path fill="#9B7745" opacity="1.000000" stroke="none" 
	d="
M89.647873,329.276245 
	C90.408424,341.457703 90.734360,353.556366 91.081291,366.091370 
	C81.398186,366.270966 71.694077,366.014191 61.552242,365.299255 
	C61.374466,353.763214 61.634426,342.685364 61.894379,331.607483 
	C71.000671,330.802795 80.106972,329.998108 89.647873,329.276245 
z"/>
<path fill="#C8B275" opacity="1.000000" stroke="none" 
	d="
M164.523453,298.161316 
	C165.502121,299.787750 166.884796,301.658203 166.900253,303.539856 
	C167.059708,322.965576 166.688385,342.401093 167.185150,361.815399 
	C167.336365,367.725586 162.830963,366.310242 160.178009,368.451080 
	C158.302261,368.813904 156.587128,368.849121 154.445526,368.835297 
	C154.010071,356.968048 154.061478,345.149353 153.951523,333.332092 
	C153.922348,330.196716 153.397171,327.065948 153.067215,323.520752 
	C156.787384,314.875793 160.540085,306.643127 164.523453,298.161316 
z"/>
<path fill="#8D6736" opacity="1.000000" stroke="none" 
	d="
M61.561707,331.523743 
	C61.634426,342.685364 61.374466,353.763214 61.092590,365.234009 
	C52.624702,366.372437 45.391727,364.350555 41.343044,356.171906 
	C36.382053,346.150330 42.294327,334.449829 53.298149,332.290436 
	C55.897312,331.780365 58.583096,331.711700 61.561707,331.523743 
z"/>
<path fill="#262626" opacity="1.000000" stroke="none" 
	d="
M196.946594,228.251923 
	C194.339127,233.661819 191.390152,239.058289 188.242844,244.732056 
	C187.803955,244.112183 187.099167,243.001190 187.397964,242.352432 
	C189.378189,238.052856 191.573608,233.852402 193.849182,229.309509 
	C194.867950,228.745728 195.736511,228.492096 196.946594,228.251923 
z"/>
<path fill="#AE9058" opacity="1.000000" stroke="none" 
	d="
M392.199982,118.425476 
	C404.774231,119.470604 413.707458,125.311752 418.175781,137.534348 
	C419.648743,141.563370 422.007294,145.268616 423.869720,149.814270 
	C423.185730,153.208359 422.101074,155.906021 422.078766,158.612427 
	C421.916504,178.326813 421.967957,198.042953 421.492249,217.785950 
	C411.545105,217.064377 402.664948,219.486893 393.988800,222.524612 
	C393.980927,216.984268 393.976227,211.910828 394.238953,206.597992 
	C399.685303,204.895859 404.864197,203.433121 410.293182,201.899780 
	C403.701416,188.775558 397.304474,176.039291 391.062866,162.894958 
	C391.476654,160.205673 391.934814,157.926682 391.960358,155.642853 
	C392.099152,143.237717 392.131195,130.831390 392.199982,118.425476 
z"/>
<path fill="#DBCA89" opacity="1.000000" stroke="none" 
	d="
M311.007874,45.552372 
	C317.756042,41.281834 324.976990,38.611557 333.550659,39.396515 
	C333.995300,40.179897 333.997650,40.589645 334.000000,40.999695 
	C334.000000,41.000000 333.998779,40.999725 333.554626,40.997955 
	C326.008698,41.040817 325.999695,41.040817 325.999146,48.139351 
	C325.996094,87.941200 325.949585,127.743217 326.094421,167.544540 
	C326.105286,170.533356 327.493317,173.517151 328.077576,176.781189 
	C323.014557,182.400101 318.115143,187.741074 312.839630,192.929535 
	C311.976166,190.621323 311.067169,188.466324 311.063507,186.309799 
	C310.984253,139.390762 311.005737,92.471550 311.007874,45.552372 
z"/>
<path fill="#E1D28F" opacity="1.000000" stroke="none" 
	d="
M310.730957,45.650200 
	C311.005737,92.471550 310.984253,139.390762 311.063507,186.309799 
	C311.067169,188.466324 311.976166,190.621323 312.780090,193.296387 
	C313.038727,195.539200 312.642975,197.335587 312.995880,198.970367 
	C313.655701,202.026627 314.749908,204.989105 315.288544,208.049316 
	C314.275696,209.973419 313.123322,211.826782 313.079407,213.706039 
	C312.644012,232.333862 312.392090,250.965942 312.088257,269.596832 
	C312.088257,269.596832 311.783203,269.628967 311.349731,269.360291 
	C310.638916,269.051300 310.361511,269.010956 310.084106,268.970612 
	C307.469788,268.208344 304.855499,267.446106 302.258392,266.090942 
	C302.517059,263.213104 302.968109,260.928345 302.969452,258.643311 
	C303.007538,195.108444 303.026794,131.573517 302.944366,68.038719 
	C302.938385,63.424351 302.139008,58.811001 301.708496,54.197182 
	C304.136230,51.713097 306.563965,49.229008 309.181519,46.458611 
	C309.732239,46.030876 310.093140,45.889454 310.730957,45.650200 
z"/>
<path fill="#CFBA7B" opacity="1.000000" stroke="none" 
	d="
M336.205750,39.570126 
	C341.017822,41.138412 345.829926,42.706696 350.710266,44.913338 
	C350.518433,47.341408 350.034515,49.130779 350.031708,50.920902 
	C349.984924,80.638489 349.974792,110.356239 350.049194,140.073715 
	C350.054443,142.169708 350.782318,144.263901 351.064697,146.678238 
	C346.546265,153.071091 342.137299,159.144638 337.284790,165.145462 
	C332.867279,164.261612 334.050293,161.048233 334.046417,158.634521 
	C333.983398,119.423004 334.000092,80.211349 333.998779,40.999725 
	C333.998779,40.999725 334.000000,41.000000 334.327393,40.912399 
	C335.171753,40.406570 335.688751,39.988346 336.205750,39.570126 
z"/>
<path fill="#BDA369" opacity="1.000000" stroke="none" 
	d="
M393.971497,206.837387 
	C393.976227,211.910828 393.980927,216.984268 393.750244,222.776337 
	C388.276764,227.636917 382.931824,231.657166 377.920837,236.057693 
	C377.204315,236.686935 377.471558,239.869492 378.359131,240.655106 
	C383.377533,245.096954 388.723938,249.168228 393.960693,253.811462 
	C393.978058,265.862000 393.993286,277.466766 394.008545,289.071564 
	C393.385590,289.193726 392.762665,289.315887 391.401245,289.255066 
	C390.082092,289.060028 389.501404,289.047882 388.920746,289.035767 
	C381.745392,287.538147 374.570007,286.040588 367.380981,283.813538 
	C367.575775,281.124481 367.957520,279.165558 367.964874,277.205231 
	C368.017029,263.294312 368.071899,249.382278 367.931274,235.472595 
	C367.899963,232.377914 367.094452,229.291046 366.796082,225.929718 
	C374.250214,216.937164 383.092804,210.425537 393.971497,206.837387 
z"/>
<path fill="#9B7745" opacity="1.000000" stroke="none" 
	d="
M421.951874,217.758530 
	C421.967957,198.042953 421.916504,178.326813 422.078766,158.612427 
	C422.101074,155.906021 423.185730,153.208359 423.973083,150.151672 
	C430.799896,162.483673 437.516693,175.127472 444.028870,187.875793 
	C447.301697,194.282761 445.998260,200.496460 442.373688,206.162537 
	C448.355469,210.221191 454.225281,214.203888 459.985626,218.733582 
	C459.187653,225.357864 458.499176,231.435135 457.543152,237.292480 
	C448.100067,225.881165 436.160126,219.745590 421.951874,217.758530 
z"/>
<path fill="#C8B275" opacity="1.000000" stroke="none" 
	d="
M351.174164,146.358932 
	C350.782318,144.263901 350.054443,142.169708 350.049194,140.073715 
	C349.974792,110.356239 349.984924,80.638489 350.031708,50.920902 
	C350.034515,49.130779 350.518433,47.341408 350.953857,45.153141 
	C353.985901,46.982147 356.842560,49.209698 359.682068,52.092216 
	C359.122559,54.814289 358.136230,56.875984 358.110931,58.949402 
	C357.963776,71.015221 357.886597,83.087814 358.197845,95.147484 
	C358.249817,97.161125 360.321014,99.122658 361.459167,101.108269 
	C359.252716,104.096474 357.046234,107.084686 355.335938,109.400955 
	C358.813782,110.247505 364.056793,111.523727 369.640015,113.426964 
	C369.646393,125.949501 369.312592,137.845016 368.593567,149.732544 
	C362.530304,148.602692 356.852234,147.480820 351.174164,146.358932 
z"/>
<path fill="#BDA369" opacity="1.000000" stroke="none" 
	d="
M368.978760,149.740524 
	C369.312592,137.845016 369.646393,125.949501 369.979675,113.594330 
	C377.166809,114.814354 384.354492,116.494034 391.871063,118.299591 
	C392.131195,130.831390 392.099152,143.237717 391.960358,155.642853 
	C391.934814,157.926682 391.476654,160.205673 390.822418,162.631012 
	C388.075134,155.938675 383.483521,152.130859 376.090271,151.635696 
	C373.688263,151.474838 371.347534,150.398254 368.978760,149.740524 
z"/>
<path fill="#9B7745" opacity="1.000000" stroke="none" 
	d="
M460.612091,258.265472 
	C449.295959,268.483612 436.065857,274.125854 420.389191,274.395325 
	C420.040131,269.064453 420.107910,264.253815 420.535156,259.350616 
	C423.618835,258.823853 426.378296,258.543427 429.061127,257.928772 
	C440.844635,255.228989 450.143860,248.609344 457.834229,239.954926 
	C457.911926,244.596100 457.692596,248.762955 458.106995,252.865784 
	C458.295410,254.731003 459.738251,256.469513 460.612091,258.265472 
z"/>
<path fill="#AE9058" opacity="1.000000" stroke="none" 
	d="
M420.175659,259.443146 
	C420.107910,264.253815 420.040131,269.064453 419.961121,274.328674 
	C418.959534,274.846893 417.931702,275.115906 416.985291,274.941895 
	C412.143280,274.051605 409.332031,275.501129 407.306671,280.488647 
	C405.240753,285.576050 400.433258,288.374817 394.400024,289.117401 
	C393.993286,277.466766 393.978058,265.862000 394.325928,253.806732 
	C402.845642,256.804504 410.988525,260.310059 420.175659,259.443146 
z"/>
<path fill="#8D6736" opacity="1.000000" stroke="none" 
	d="
M460.888458,258.129974 
	C459.738251,256.469513 458.295410,254.731003 458.106995,252.865784 
	C457.692596,248.762955 457.911926,244.596100 457.863098,239.713623 
	C457.839325,238.485367 457.825012,237.998901 457.810669,237.512421 
	C458.499176,231.435135 459.187653,225.357864 460.201904,218.999344 
	C465.017822,223.944275 469.941101,228.878662 473.764465,234.554047 
	C475.111755,236.553940 474.848297,241.083267 473.438751,243.211578 
	C469.922852,248.520294 465.327118,253.113846 460.888458,258.129974 
z"/>
<path fill="#BDA369" opacity="1.000000" stroke="none" 
	d="
M361.705688,100.905571 
	C360.321014,99.122658 358.249817,97.161125 358.197845,95.147484 
	C357.886597,83.087814 357.963776,71.015221 358.110931,58.949402 
	C358.136230,56.875984 359.122559,54.814289 359.819641,52.398369 
	C372.518097,64.845566 373.326019,84.719566 361.705688,100.905571 
z"/>
<path fill="#AE9058" opacity="1.000000" stroke="none" 
	d="
M389.048523,289.283447 
	C389.501404,289.047882 390.082092,289.060028 391.093506,289.164703 
	C391.343872,289.560791 391.163483,289.864288 390.926025,290.425934 
	C390.304718,290.299744 389.740509,289.915405 389.048523,289.283447 
z"/>
<path fill="#D4C182" opacity="1.000000" stroke="none" 
	d="
M335.987030,39.361008 
	C335.688751,39.988346 335.171753,40.406570 334.327393,40.912094 
	C333.997650,40.589645 333.995300,40.179897 333.990540,39.462845 
	C334.581573,39.154316 335.174927,39.153103 335.987030,39.361008 
z"/>
<path fill="#F7EEA7" opacity="1.000000" stroke="none" 
	d="
M265.142548,326.005127 
	C258.170197,317.900482 251.197830,309.795837 244.193481,300.992249 
	C244.774109,297.594696 245.802261,294.913391 245.915695,292.193939 
	C246.178619,285.889618 245.999405,279.566864 245.999390,273.251587 
	C245.999313,238.683746 246.009842,204.115875 245.980774,169.548065 
	C245.978180,166.466064 246.603928,162.976562 242.413651,161.758865 
	C247.321701,154.016968 252.122879,146.204453 257.176453,138.558746 
	C260.392090,133.693710 263.982269,129.076248 267.919495,124.481712 
	C268.955902,129.202698 269.910645,133.787979 269.929230,138.377060 
	C270.060272,170.760040 269.972809,203.143860 270.048615,235.527176 
	C270.054688,238.124481 270.762268,240.720139 271.143829,243.316559 
	C268.287964,246.056854 270.660736,248.064789 271.867676,250.681213 
	C271.084503,253.121475 270.082123,255.080154 270.070557,257.044708 
	C269.953522,276.859375 270.153015,296.677277 269.864960,316.488434 
	C269.809021,320.337067 268.030945,324.160645 267.047241,327.995789 
	C266.801422,327.774292 266.555573,327.552826 266.036316,326.955688 
	C265.584442,326.357819 265.377655,326.166199 265.142548,326.005127 
z"/>
<path fill="#E5D794" opacity="1.000000" stroke="none" 
	d="
M301.430908,54.436241 
	C302.139008,58.811001 302.938385,63.424351 302.944366,68.038719 
	C303.026794,131.573517 303.007538,195.108444 302.969452,258.643311 
	C302.968109,260.928345 302.517059,263.213104 302.000183,265.829468 
	C296.013641,263.481110 293.818024,258.307678 292.517426,252.206879 
	C293.558533,248.520355 294.897919,245.355728 294.905548,242.187881 
	C295.023041,193.411667 294.967255,144.635040 294.951721,95.858498 
	C295.274872,94.189148 296.294098,92.276329 295.809082,90.889679 
	C292.473297,81.353104 292.618286,71.912979 296.290863,62.608227 
	C297.412354,59.766842 299.505249,57.308865 301.430908,54.436241 
z"/>
<path fill="#F2E8A2" opacity="1.000000" stroke="none" 
	d="
M242.099518,161.862732 
	C246.603928,162.976562 245.978180,166.466064 245.980774,169.548065 
	C246.009842,204.115875 245.999313,238.683746 245.999390,273.251587 
	C245.999405,279.566864 246.178619,285.889618 245.915695,292.193939 
	C245.802261,294.913391 244.774109,297.594696 244.071106,300.672241 
	C240.791656,297.221924 237.602615,293.392731 234.563812,289.064941 
	C235.475967,286.161377 236.890594,283.759277 236.901306,281.350983 
	C237.047623,248.429276 237.060211,215.506424 236.912445,182.584747 
	C236.896622,179.056137 235.668472,175.532944 235.002716,172.007248 
	C237.263611,168.660370 239.524506,165.313477 242.099518,161.862732 
z"/>
<path fill="#E9DC98" opacity="1.000000" stroke="none" 
	d="
M294.559296,95.773849 
	C294.967255,144.635040 295.023041,193.411667 294.905548,242.187881 
	C294.897919,245.355728 293.558533,248.520355 292.511505,251.839249 
	C289.742065,244.702927 287.299805,237.413849 285.089539,229.412109 
	C285.880646,226.692245 286.922546,224.686188 286.927429,222.677628 
	C287.023407,183.267090 287.017212,143.856247 286.942078,104.445618 
	C286.938507,102.568375 286.107544,100.692703 285.661865,98.816299 
	C288.496857,97.773933 291.331879,96.731567 294.559296,95.773849 
z"/>
<path fill="#EEE39D" opacity="1.000000" stroke="none" 
	d="
M285.333801,98.884857 
	C286.107544,100.692703 286.938507,102.568375 286.942078,104.445618 
	C287.017212,143.856247 287.023407,183.267090 286.927429,222.677628 
	C286.922546,224.686188 285.880646,226.692245 285.080597,229.033401 
	C283.408539,230.452682 281.977448,231.538025 280.051697,232.436218 
	C279.038055,229.880142 278.073303,227.512451 278.066895,225.142166 
	C277.970398,189.413681 278.034149,153.684723 277.908997,117.956413 
	C277.901978,115.953346 276.580933,113.954880 275.871521,111.954269 
	C278.916229,107.620651 281.960968,103.287033 285.333801,98.884857 
z"/>
<path fill="#F2E8A2" opacity="1.000000" stroke="none" 
	d="
M275.572327,112.112381 
	C276.580933,113.954880 277.901978,115.953346 277.908997,117.956413 
	C278.034149,153.684723 277.970398,189.413681 278.066895,225.142166 
	C278.073303,227.512451 279.038055,229.880142 279.757080,232.569366 
	C277.213867,236.246857 274.470642,239.604034 271.435608,243.138885 
	C270.762268,240.720139 270.054688,238.124481 270.048615,235.527176 
	C269.972809,203.143860 270.060272,170.760040 269.929230,138.377060 
	C269.910645,133.787979 268.955902,129.202698 268.201904,124.300354 
	C270.403961,120.080200 272.838562,116.175339 275.572327,112.112381 
z"/>
<path fill="#E5D794" opacity="1.000000" stroke="none" 
	d="
M224.032745,295.009949 
	C221.262848,299.918030 218.492950,304.826111 215.005829,309.831055 
	C213.525787,307.994995 212.108307,306.065399 212.098541,304.128693 
	C211.955368,275.739471 212.063110,247.348969 211.901001,218.959976 
	C211.884949,216.150253 210.492447,213.348373 209.554443,210.320465 
	C209.377167,209.726791 209.384232,209.355499 209.391281,208.984222 
	C209.558044,208.902985 209.724823,208.821747 210.261810,208.385284 
	C210.884384,207.350464 211.136749,206.670883 211.389114,205.991287 
	C211.556885,205.910233 211.724670,205.829178 212.264221,205.391418 
	C212.888596,204.353607 213.141190,203.672501 213.393799,202.991379 
	C213.560989,202.910721 213.728195,202.830063 214.287277,202.390106 
	C215.645905,200.974945 216.612656,199.919083 217.981903,198.962769 
	C219.255936,201.323364 220.871521,203.579697 220.885864,205.846191 
	C221.060455,233.430740 220.984940,261.016785 221.024261,288.602386 
	C221.027863,291.128174 220.226608,294.197174 224.032745,295.009949 
z"/>
<path fill="#EEE39D" opacity="1.000000" stroke="none" 
	d="
M234.694977,172.127380 
	C235.668472,175.532944 236.896622,179.056137 236.912445,182.584747 
	C237.060211,215.506424 237.047623,248.429276 236.901306,281.350983 
	C236.890594,283.759277 235.475967,286.161377 234.406006,288.764771 
	C233.262299,287.970093 232.426636,286.976990 231.169174,285.451965 
	C230.164734,282.586121 229.084747,280.254272 229.075150,277.918060 
	C228.958435,249.503754 229.060043,221.088440 228.884888,192.674744 
	C228.870712,190.374329 227.239594,188.083893 226.499435,185.465057 
	C227.845612,183.163696 229.052200,181.186127 230.258789,179.208557 
	C230.258789,179.208557 230.092651,179.121689 230.434845,179.001373 
	C231.184616,177.920929 231.592194,176.960770 231.999786,176.000610 
	C232.795609,174.749588 233.591431,173.498550 234.694977,172.127380 
z"/>
<path fill="#E1D28F" opacity="1.000000" stroke="none" 
	d="
M209.738785,210.542862 
	C210.492447,213.348373 211.884949,216.150253 211.901001,218.959976 
	C212.063110,247.348969 211.955368,275.739471 212.098541,304.128693 
	C212.108307,306.065399 213.525787,307.994995 214.689484,309.981323 
	C215.040787,310.201050 214.991211,310.367371 214.715927,310.933868 
	C214.302734,311.553741 214.144363,311.792755 214.015137,312.051025 
	C211.709122,316.148468 209.403107,320.245941 206.933609,324.665894 
	C205.846268,322.543457 204.134308,320.103577 204.118683,317.652863 
	C203.932297,288.424408 204.046051,259.194092 203.901672,229.965149 
	C203.890823,227.768585 202.509491,225.578781 201.435791,223.214783 
	C201.358826,222.289261 201.611298,221.534805 202.287476,220.361755 
	C205.053711,216.809738 207.396240,213.676300 209.738785,210.542862 
z"/>
<path fill="#262626" opacity="1.000000" stroke="none" 
	d="
M229.904022,179.226257 
	C229.052200,181.186127 227.845612,183.163696 226.264465,185.682922 
	C223.119751,190.437469 220.349594,194.650360 217.579437,198.863251 
	C216.612656,199.919083 215.645905,200.974945 214.382965,202.128571 
	C219.240936,194.565567 224.395096,186.904770 229.904022,179.226257 
z"/>
<path fill="#262626" opacity="1.000000" stroke="none" 
	d="
M209.554443,210.320465 
	C207.396240,213.676300 205.053711,216.809738 202.393311,220.069244 
	C204.320175,216.529037 206.564926,212.862762 209.100479,209.090363 
	C209.384232,209.355499 209.377167,209.726791 209.554443,210.320465 
z"/>
<path fill="#262626" opacity="1.000000" stroke="none" 
	d="
M198.700531,225.118317 
	C198.634415,225.978943 198.239502,226.956833 197.560364,228.105591 
	C197.641342,227.262848 198.006531,226.249222 198.700531,225.118317 
z"/>
<path fill="#262626" opacity="1.000000" stroke="none" 
	d="
M231.674911,176.118561 
	C231.592194,176.960770 231.184616,177.920929 230.504150,179.064499 
	C230.604187,178.244125 230.977112,177.240326 231.674911,176.118561 
z"/>
<path fill="#262626" opacity="1.000000" stroke="none" 
	d="
M211.150528,206.128204 
	C211.136749,206.670883 210.884384,207.350464 210.357849,208.124146 
	C210.359772,207.567184 210.635864,206.916153 211.150528,206.128204 
z"/>
<path fill="#262626" opacity="1.000000" stroke="none" 
	d="
M213.154404,203.128387 
	C213.141190,203.672501 212.888596,204.353607 212.360870,205.129181 
	C212.362167,204.570892 212.638596,203.918152 213.154404,203.128387 
z"/>
<path fill="#E9DC98" opacity="1.000000" stroke="none" 
	d="
M280.649109,381.013123 
	C282.215546,372.764862 283.872803,364.532074 285.284180,356.257355 
	C285.634857,354.201355 285.190125,352.009735 285.058167,349.030457 
	C285.045319,346.359039 285.105865,344.537811 285.122131,342.716156 
	C285.312683,321.376251 285.610748,300.035919 285.547241,278.696686 
	C285.538666,275.818359 285.824829,274.250641 288.716522,273.762268 
	C292.221130,278.576965 295.725708,283.391663 298.995728,288.659424 
	C298.173676,291.379883 297.077759,293.646301 297.073425,295.914825 
	C296.976196,347.009033 296.998413,398.103424 297.000732,449.197815 
	C297.000793,450.528900 296.671722,452.009613 297.147369,453.148560 
	C297.613586,454.264984 298.912628,455.033630 299.846130,455.954926 
	C298.102173,465.782440 295.242218,474.874908 284.326569,478.463013 
	C283.623291,475.048218 283.052887,472.091919 283.044556,469.134003 
	C282.972961,443.722412 283.103973,418.309662 282.897369,392.899536 
	C282.865112,388.931580 281.433624,384.974976 280.649109,381.013123 
z"/>
<path fill="#E5D794" opacity="1.000000" stroke="none" 
	d="
M299.972168,455.921478 
	C298.912628,455.033630 297.613586,454.264984 297.147369,453.148560 
	C296.671722,452.009613 297.000793,450.528900 297.000732,449.197815 
	C296.998413,398.103424 296.976196,347.009033 297.073425,295.914825 
	C297.077759,293.646301 298.173676,291.379883 299.167328,288.973206 
	C301.914642,292.032928 304.255798,295.231903 306.457550,299.042542 
	C305.881592,301.227478 305.066437,302.800110 305.063721,304.374146 
	C304.992676,345.422150 304.976929,386.470428 305.115662,427.518097 
	C305.120941,429.082642 306.757782,430.641663 307.606934,432.590942 
	C306.131195,437.650848 304.682861,442.323029 303.068726,447.352783 
	C302.051483,450.411957 301.200073,453.113617 300.348663,455.815247 
	C300.348663,455.815247 300.098236,455.888031 299.972168,455.921478 
z"/>
<path fill="#DBCA89" opacity="1.000000" stroke="none" 
	d="
M322.896973,386.633179 
	C322.868347,386.859772 322.839722,387.086334 322.443237,387.785706 
	C321.708099,389.480469 321.340851,390.702423 320.851166,392.273987 
	C318.920319,397.927155 317.111938,403.230713 315.061096,408.213501 
	C313.882019,405.682953 312.144684,403.478363 312.130188,401.262573 
	C311.945953,373.058838 311.951599,344.853180 312.137573,316.649475 
	C312.150055,314.760040 314.003510,312.882721 315.000702,310.999786 
	C318.774323,316.057251 322.547974,321.114685 326.063568,326.646057 
	C325.207916,328.379761 324.103516,329.634521 324.091003,330.900085 
	C323.964081,343.728882 323.932922,356.560791 324.149750,369.387177 
	C324.170502,370.613556 326.050354,371.808502 327.067139,373.018036 
	C325.729584,377.173553 324.391998,381.329102 322.966675,385.970673 
	C322.878937,386.456726 322.896973,386.633179 322.896973,386.633179 
z"/>
<path fill="#E1D28F" opacity="1.000000" stroke="none" 
	d="
M314.971680,310.612061 
	C314.003510,312.882721 312.150055,314.760040 312.137573,316.649475 
	C311.951599,344.853180 311.945953,373.058838 312.130188,401.262573 
	C312.144684,403.478363 313.882019,405.682953 315.017395,408.569611 
	C312.688873,416.898743 310.161621,424.550995 307.634369,432.203247 
	C306.757782,430.641663 305.120941,429.082642 305.115662,427.518097 
	C304.976929,386.470428 304.992676,345.422150 305.063721,304.374146 
	C305.066437,302.800110 305.881592,301.227478 306.552734,299.363281 
	C309.300079,302.449341 311.812897,305.826294 314.639740,309.357635 
	C314.953766,309.511993 314.919128,309.447144 314.919128,309.447144 
	C314.927002,309.706207 314.934845,309.965302 314.971680,310.612061 
z"/>
<path fill="#C8B275" opacity="1.000000" stroke="none" 
	d="
M366.645386,226.200592 
	C367.094452,229.291046 367.899963,232.377914 367.931274,235.472595 
	C368.071899,249.382278 368.017029,263.294312 367.964874,277.205231 
	C367.957520,279.165558 367.575775,281.124481 367.215454,283.459595 
	C365.940643,283.573975 364.817780,283.312805 363.012878,282.871246 
	C357.487854,281.365723 352.644836,280.040649 347.842163,278.203430 
	C347.965668,265.662445 348.048737,253.633621 348.534851,241.636749 
	C352.891449,242.877426 356.845062,244.086151 360.807800,245.195999 
	C360.816925,245.097107 361.003052,245.219818 361.003052,245.219818 
	C361.003052,245.219818 360.700684,245.228180 360.828613,244.848953 
	C360.605530,241.400604 359.230804,237.968414 360.158478,235.352798 
	C361.361176,231.961716 364.398071,229.221176 366.645386,226.200592 
z"/>
<path fill="#F2E8A2" opacity="1.000000" stroke="none" 
	d="
M267.066467,328.341644 
	C268.030945,324.160645 269.809021,320.337067 269.864960,316.488434 
	C270.153015,296.677277 269.953522,276.859375 270.070557,257.044708 
	C270.082123,255.080154 271.084503,253.121475 272.019989,251.014771 
	C275.591522,255.243851 278.770142,259.618256 281.821899,264.634186 
	C281.129669,267.444641 280.087067,269.610596 280.073273,271.783051 
	C279.946747,291.712982 279.997040,311.644012 280.000000,331.574738 
	C280.000610,335.678314 280.018494,339.781860 280.028442,343.885437 
	C275.714203,338.819458 271.399933,333.753479 267.066467,328.341644 
z"/>
<path fill="#DBCA89" opacity="1.000000" stroke="none" 
	d="
M312.385193,269.742828 
	C312.392090,250.965942 312.644012,232.333862 313.079407,213.706039 
	C313.123322,211.826782 314.275696,209.973419 315.467560,208.388855 
	C318.552765,216.369370 320.984894,224.104248 323.692932,231.741302 
	C324.286560,233.415405 325.862579,234.741150 326.953491,236.632935 
	C326.613342,239.478867 326.078094,241.915710 326.040588,244.360199 
	C325.924347,251.941971 326.184326,259.534546 325.865204,267.104675 
	C325.785461,268.996490 324.077057,270.819672 323.117188,272.674408 
	C319.638824,271.745880 316.160431,270.817352 312.385193,269.742828 
z"/>
<path fill="#EEE39D" opacity="1.000000" stroke="none" 
	d="
M280.096985,344.214417 
	C280.018494,339.781860 280.000610,335.678314 280.000000,331.574738 
	C279.997040,311.644012 279.946747,291.712982 280.073273,271.783051 
	C280.087067,269.610596 281.129669,267.444641 281.942932,264.943848 
	C284.289062,267.434052 286.387390,270.256134 288.601105,273.420227 
	C285.824829,274.250641 285.538666,275.818359 285.547241,278.696686 
	C285.610748,300.035919 285.312683,321.376251 285.122131,342.716156 
	C285.105865,344.537811 285.045319,346.359039 285.005554,348.635193 
	C283.392395,347.574402 281.778961,346.058899 280.096985,344.214417 
z"/>
<path fill="#CFBA7B" opacity="1.000000" stroke="none" 
	d="
M348.131836,241.604797 
	C348.048737,253.633621 347.965668,265.662445 347.418884,278.195801 
	C343.970154,278.120789 340.985077,277.541260 338.000031,276.961700 
	C337.408905,276.797455 336.817780,276.633179 336.118896,275.709351 
	C336.051971,262.850037 336.092743,250.750290 336.540161,238.678955 
	C340.675140,239.673172 344.403503,240.638977 348.131836,241.604797 
z"/>
<path fill="#D4C182" opacity="1.000000" stroke="none" 
	d="
M327.399048,372.860474 
	C326.050354,371.808502 324.170502,370.613556 324.149750,369.387177 
	C323.932922,356.560791 323.964081,343.728882 324.091003,330.900085 
	C324.103516,329.634521 325.207916,328.379761 326.217010,326.990601 
	C334.118195,334.324463 337.723816,341.962738 333.144928,353.534882 
	C330.714722,359.676697 329.496368,366.298035 327.399048,372.860474 
z"/>
<path fill="#D4C182" opacity="1.000000" stroke="none" 
	d="
M336.133514,238.650574 
	C336.092743,250.750290 336.051971,262.850037 336.023376,275.409729 
	C331.822144,275.061310 327.608765,274.252960 323.256287,273.059509 
	C324.077057,270.819672 325.785461,268.996490 325.865204,267.104675 
	C326.184326,259.534546 325.924347,251.941971 326.040588,244.360199 
	C326.078094,241.915710 326.613342,239.478867 327.329132,236.608643 
	C330.536102,237.002686 333.334808,237.826630 336.133514,238.650574 
z"/>
<path fill="#212121" opacity="1.000000" stroke="none" 
	d="
M307.606934,432.590942 
	C310.161621,424.550995 312.688873,416.898743 315.259827,408.890381 
	C317.111938,403.230713 318.920319,397.927155 321.091827,392.262024 
	C321.454956,391.900452 321.930603,391.822876 321.930603,391.822876 
	C321.953125,392.617340 321.975647,393.411774 321.998474,394.603729 
	C321.998322,395.444550 321.997864,395.887848 321.769592,396.937195 
	C318.694458,406.029633 315.847137,414.516052 312.999817,423.002441 
	C310.430817,430.782837 307.861877,438.563202 304.848694,446.674011 
	C304.014526,447.001343 303.624512,446.998291 303.234528,446.995239 
	C304.682861,442.323029 306.131195,437.650848 307.606934,432.590942 
z"/>
<path fill="#262626" opacity="1.000000" stroke="none" 
	d="
M338.125305,277.303741 
	C340.985077,277.541260 343.970154,278.120789 347.378479,278.707947 
	C352.644836,280.040649 357.487854,281.365723 362.667603,282.838196 
	C360.278198,282.978668 357.417358,283.504425 354.853699,282.855713 
	C349.239380,281.435059 343.775757,279.418793 338.125305,277.303741 
z"/>
<path fill="#D4C182" opacity="1.000000" stroke="none" 
	d="
M321.934692,391.479248 
	C321.930603,391.822876 321.454956,391.900452 321.214294,391.912415 
	C321.340851,390.702423 321.708099,389.480469 322.373535,388.121155 
	C322.427399,389.034393 322.183075,390.085022 321.934692,391.479248 
z"/>
<path fill="#DBCA89" opacity="1.000000" stroke="none" 
	d="
M310.181122,269.099731 
	C310.361511,269.010956 310.638916,269.051300 311.324402,269.209045 
	C311.247742,269.293915 310.762939,269.261383 310.181122,269.099731 
z"/>
<path fill="#DBCA89" opacity="1.000000" stroke="none" 
	d="
M314.977722,309.538635 
	C314.919128,309.447144 314.953766,309.511993 314.949097,309.546356 
	C314.944397,309.580719 315.166748,309.512146 315.166748,309.512146 
	C315.166748,309.512146 315.036285,309.630127 314.977722,309.538635 
z"/>
<path fill="#D4C182" opacity="1.000000" stroke="none" 
	d="
M323.079315,386.686951 
	C322.896973,386.633179 322.878937,386.456726 322.892151,386.369141 
	C323.121063,386.353790 323.336731,386.426056 323.552399,386.498352 
	C323.455475,386.579132 323.358582,386.659912 323.079315,386.686951 
z"/>
<path fill="#EEE39D" opacity="1.000000" stroke="none" 
	d="
M280.484894,381.396545 
	C281.433624,384.974976 282.865112,388.931580 282.897369,392.899536 
	C283.103973,418.309662 282.972961,443.722412 283.044556,469.134003 
	C283.052887,472.091919 283.623291,475.048218 283.963684,478.414093 
	C270.717010,480.742432 265.963226,473.587860 263.498749,464.295380 
	C262.285187,459.719421 264.498505,454.126831 265.554047,449.076385 
	C269.262238,431.333588 273.119537,413.621796 276.969086,395.908813 
	C277.996857,391.179779 279.198730,386.488586 280.484894,381.396545 
z"/>
<path fill="#E9DC98" opacity="1.000000" stroke="none" 
	d="
M217.981903,198.962784 
	C220.349594,194.650360 223.119751,190.437469 226.124878,186.006699 
	C227.239594,188.083893 228.870712,190.374329 228.884888,192.674744 
	C229.060043,221.088440 228.958435,249.503754 229.075150,277.918060 
	C229.084747,280.254272 230.164734,282.586121 230.881531,285.252869 
	C228.910782,288.647217 226.805878,291.708740 224.366852,294.890106 
	C220.226608,294.197174 221.027863,291.128174 221.024261,288.602386 
	C220.984940,261.016785 221.060455,233.430740 220.885864,205.846191 
	C220.871521,203.579697 219.255936,201.323364 217.981903,198.962784 
z"/>
<path fill="#242424" opacity="1.000000" stroke="none" 
	d="
M313.332764,422.898315 
	C315.847137,414.516052 318.694458,406.029633 321.769592,397.269714 
	C321.566254,406.353210 318.761902,414.943817 313.332764,422.898315 
z"/>
<path fill="#242424" opacity="1.000000" stroke="none" 
	d="
M303.068726,447.352783 
	C303.624512,446.998291 304.014526,447.001343 304.696777,447.008301 
	C303.681671,449.880402 302.374298,452.748566 300.707825,455.716003 
	C301.200073,453.113617 302.051483,450.411957 303.068726,447.352783 
z"/>
<path fill="#212121" opacity="1.000000" stroke="none" 
	d="
M182.073364,364.754944 
	C183.191513,363.081573 184.688004,361.410431 186.516785,359.628357 
	C185.383286,361.263977 183.917496,363.010559 182.073364,364.754944 
z"/>
<path fill="#E5D794" opacity="1.000000" stroke="none" 
	d="
M214.271530,311.993683 
	C214.144363,311.792755 214.302734,311.553741 214.645172,311.184387 
	C214.709381,311.335236 214.618652,311.635803 214.271530,311.993683 
z"/>
<path fill="#F2E8A2" opacity="1.000000" stroke="none" 
	d="
M265.111938,326.272461 
	C265.377655,326.166199 265.584442,326.357819 265.878601,326.757690 
	C265.690033,326.803467 265.385681,326.671600 265.111938,326.272461 
z"/>
<path fill="#242424" opacity="1.000000" stroke="none" 
	d="
M336.540161,238.678955 
	C333.334808,237.826630 330.536102,237.002686 327.361755,236.203033 
	C325.862579,234.741150 324.286560,233.415405 323.692932,231.741302 
	C320.984894,224.104248 318.552765,216.369370 315.842438,208.330139 
	C314.749908,204.989105 313.655701,202.026627 312.995880,198.970367 
	C312.642975,197.335587 313.038727,195.539200 313.156189,193.448898 
	C318.115143,187.741074 323.014557,182.400101 328.357117,176.577271 
	C331.776245,172.469666 334.752289,168.843933 337.728333,165.218185 
	C342.137299,159.144638 346.546265,153.071091 351.064697,146.678238 
	C356.852234,147.480820 362.530304,148.602692 368.593567,149.732544 
	C371.347534,150.398254 373.688263,151.474838 376.090271,151.635696 
	C383.483521,152.130859 388.075134,155.938675 390.667114,163.039078 
	C397.304474,176.039291 403.701416,188.775558 410.293182,201.899780 
	C404.864197,203.433121 399.685303,204.895859 394.238953,206.597992 
	C383.092804,210.425537 374.250214,216.937164 366.796082,225.929718 
	C364.398071,229.221176 361.361176,231.961716 360.158478,235.352798 
	C359.230804,237.968414 360.605530,241.400604 360.866516,244.845917 
	C360.776520,245.222122 360.798676,245.294891 360.798676,245.294891 
	C356.845062,244.086151 352.891449,242.877426 348.534851,241.636749 
	C344.403503,240.638977 340.675140,239.673172 336.540161,238.678955 
z"/>
<path fill="#262626" opacity="1.000000" stroke="none" 
	d="
M457.543152,237.292480 
	C457.825012,237.998901 457.839325,238.485367 457.824799,239.213165 
	C450.143860,248.609344 440.844635,255.228989 429.061127,257.928772 
	C426.378296,258.543427 423.618835,258.823853 420.535156,259.350616 
	C410.988525,260.310059 402.845642,256.804504 394.323822,253.360992 
	C388.723938,249.168228 383.377533,245.096954 378.359131,240.655106 
	C377.471558,239.869492 377.204315,236.686935 377.920837,236.057693 
	C382.931824,231.657166 388.276764,227.636917 393.753418,223.243240 
	C402.664948,219.486893 411.545105,217.064377 421.492249,217.785950 
	C436.160126,219.745590 448.100067,225.881165 457.543152,237.292480 
z"/>
<path fill="#D4C182" opacity="1.000000" stroke="none" 
	d="
M337.284790,165.145462 
	C334.752289,168.843933 331.776245,172.469666 328.520660,176.299332 
	C327.493317,173.517151 326.105286,170.533356 326.094421,167.544540 
	C325.949585,127.743217 325.996094,87.941200 325.999146,48.139351 
	C325.999695,41.040817 326.008698,41.040817 333.554626,40.997955 
	C334.000092,80.211349 333.983398,119.423004 334.046417,158.634521 
	C334.050293,161.048233 332.867279,164.261612 337.284790,165.145462 
z"/>
<path fill="#242424" opacity="1.000000" stroke="none" 
	d="
M360.738586,245.225159 
	C360.700684,245.228180 361.003052,245.219818 361.003052,245.219818 
	C361.003052,245.219818 360.816925,245.097107 360.807800,245.195999 
	C360.798676,245.294891 360.776520,245.222122 360.738586,245.225159 
z"/>
</svg>